<svg width="20" height="20" viewBox="0 0 20 20" fill="none" xmlns="http://www.w3.org/2000/svg">
<g clip-path="url(#clip0_1666_9593)">
<path d="M12.5831 1.4967C12.9757 1.41897 13.3976 1.48108 13.7429 1.68577C14.1909 1.93928 14.5077 2.41272 14.5655 2.92483C14.6085 3.26155 14.5421 3.61077 14.38 3.90881C14.1323 4.37639 13.6484 4.71272 13.1214 4.77209C12.7652 4.8178 12.3929 4.74436 12.0835 4.56038C11.6491 4.31038 11.3386 3.85491 11.2726 3.35725C11.2046 2.90256 11.3405 2.42249 11.6359 2.07053C11.8737 1.77874 12.214 1.57249 12.5831 1.4967Z" fill="#2341BD"/>
<path d="M9.14585 4.61465C9.71381 4.25801 10.5232 4.30684 11.0165 4.77286C11.6134 5.34434 12.199 5.92833 12.7958 6.5002C13.3169 7.00723 13.9787 7.36622 14.6861 7.53301C15.047 7.6252 15.4197 7.65723 15.7915 7.66661C15.7923 8.22208 15.7923 8.77754 15.7915 9.3334C14.6974 9.32286 13.588 9.06622 12.6556 8.4795C11.9994 8.09825 11.4931 7.52403 10.9564 6.99903C10.306 7.66739 9.65288 8.33301 9.00014 8.99864C9.59311 9.59434 10.1876 10.1881 10.7826 10.7818C10.8568 10.8369 10.829 10.9365 10.8349 11.0158C10.8326 12.69 10.8333 14.3647 10.8345 16.0393C10.2779 16.0424 9.72124 16.0424 9.16499 16.0393C9.16928 14.6533 9.16147 13.2674 9.16889 11.8815C8.36811 11.16 7.55835 10.4486 6.75444 9.73145C6.34194 9.39942 6.06147 8.88887 6.04624 8.35528C6.04233 8.00684 6.16186 7.66387 6.36303 7.38184C6.51303 7.18067 6.69897 7.01153 6.87436 6.83379C7.49897 6.20879 8.12436 5.58418 8.74897 4.95879C8.87631 4.83887 8.99545 4.70645 9.14585 4.61465Z" fill="#2341BD"/>
<path d="M3.5168 10.2626C4.49961 10.1048 5.53672 10.3153 6.37617 10.8508C7.2418 11.393 7.89648 12.261 8.17344 13.2446C8.43047 14.1481 8.36992 15.1391 7.99687 16.002C7.6 16.9395 6.84453 17.7165 5.92266 18.1477C5.15391 18.5106 4.27227 18.6235 3.43555 18.4739C2.4332 18.2973 1.5082 17.7325 0.884375 16.929C0.327734 16.2239 0.0195312 15.3348 0 14.438V14.2821C0.028125 13.3216 0.389062 12.3743 1.02422 11.6512C1.65898 10.9165 2.55625 10.4118 3.5168 10.2626ZM3.61367 11.5118C2.62266 11.688 1.75742 12.4231 1.425 13.3731C1.15117 14.1341 1.20312 15.0087 1.57773 15.7266C1.85234 16.261 2.29961 16.7028 2.83555 16.9739C3.40234 17.2637 4.06484 17.3544 4.69023 17.2434C5.30078 17.1372 5.87266 16.8274 6.29609 16.3758C6.71953 15.9282 6.99062 15.3411 7.05977 14.729C7.13711 14.088 7.00234 13.4204 6.66797 12.8661C6.37539 12.3747 5.93086 11.9766 5.41289 11.7352C4.85664 11.4727 4.21719 11.3997 3.61367 11.5118Z" fill="#2EA9E7"/>
<path d="M15.1187 10.2732C15.9523 10.1267 16.8304 10.242 17.5956 10.6053C18.3761 10.9713 19.0371 11.5857 19.4605 12.3369C19.7984 12.9263 19.9742 13.6002 19.9999 14.2779V14.4381C19.9812 15.0693 19.8343 15.699 19.5421 16.2603C18.9878 17.3556 17.9289 18.1803 16.7285 18.4412C15.9031 18.6232 15.0226 18.5474 14.2425 18.2209C13.5308 17.924 12.9042 17.4256 12.4538 16.7998C11.9089 16.0474 11.6273 15.1084 11.6746 14.1803C11.7109 13.3431 12.0136 12.5213 12.5234 11.8564C13.1511 11.0303 14.0945 10.4486 15.1187 10.2732ZM15.255 11.5166C14.2968 11.697 13.4578 12.3978 13.1148 13.3111C12.857 13.9799 12.8538 14.7428 13.1054 15.4138C13.3472 16.0681 13.8386 16.624 14.4554 16.9494C15.4507 17.4869 16.757 17.3791 17.6413 16.6693C18.1816 16.249 18.5601 15.6287 18.691 14.9572C18.816 14.3256 18.7347 13.6517 18.4476 13.074C18.1667 12.4994 17.6874 12.026 17.1109 11.7494C16.5394 11.4724 15.8773 11.3947 15.255 11.5166Z" fill="#2EA9E7"/>
</g>
<defs>
<clipPath id="clip0_1666_9593">
<rect width="20" height="20" fill="white"/>
</clipPath>
</defs>
</svg>
