<svg width="20" height="20" viewBox="0 0 20 20" fill="none" xmlns="http://www.w3.org/2000/svg">
<g clip-path="url(#clip0_1666_9608)">
<path d="M6.61449 4.67266C6.51332 4.40156 6.41996 4.09336 6.17074 3.91992C5.69496 4.1168 5.24418 4.39922 4.92972 4.81523C4.72425 5.07969 4.56214 5.37695 4.32972 5.6207C4.07816 5.91211 3.72933 6.09102 3.3848 6.24922C4.12465 6.92031 4.86839 7.58711 5.61019 8.25625C5.70121 8.34531 5.83011 8.41641 5.85355 8.55234C6.13246 9.49297 6.44691 10.4223 6.7723 11.3477C6.13597 10.934 5.50668 10.5098 4.88089 10.0805C4.80629 10.023 4.77191 9.93008 4.70277 9.86719C4.0184 9.18125 3.31058 8.51328 2.52894 7.93828C2.25355 7.75 1.96957 7.55117 1.6391 7.47656C1.54183 7.46523 1.39808 7.44258 1.33754 7.53789C1.30902 7.79727 1.3266 8.06016 1.28832 8.31914C1.22543 8.88203 1.11058 9.47383 0.750036 9.92852C0.572302 10.1523 0.281677 10.2566 0.000427246 10.2223V10.2281C0.153942 10.2949 0.316442 10.3379 0.477379 10.3828C1.39535 10.648 2.32425 10.8723 3.24808 11.116C3.38675 11.1574 3.54183 11.1672 3.65785 11.2621C4.70082 12.0156 5.79613 12.6922 6.85511 13.4223C6.98441 13.5117 7.12386 13.5895 7.22972 13.7078C7.48832 13.9867 7.85707 14.177 8.24183 14.1793C8.57699 14.1789 8.87699 14.0074 9.19652 13.9301C10.2145 13.6348 11.2891 13.5867 12.3399 13.684C12.0328 13.8672 11.7145 14.0316 11.4211 14.2367C11.1953 14.3934 10.9274 14.5203 10.7899 14.7715C10.5149 15.2508 10.8098 15.9789 11.3711 16.0691C11.7055 16.1176 11.9664 15.8676 12.2266 15.7012C13.2766 15.0027 14.4539 14.4805 15.6973 14.2504C15.9196 14.2117 16.159 14.1449 16.2946 13.9496C16.5078 13.7195 16.6981 13.4582 16.7703 13.148C16.8977 12.6824 16.8043 12.1355 16.4473 11.7934C16.2141 11.5566 15.8871 11.4555 15.5703 11.3887C14.0512 11.0129 12.4907 10.7543 10.9215 10.7949C10.0965 10.8191 9.27425 10.943 8.48089 11.1715C8.2473 10.4918 7.99496 9.81797 7.7848 9.13047C7.68832 8.82422 7.59105 8.51797 7.49535 8.21172C7.4516 8.06523 7.37308 7.93047 7.34769 7.77852C7.28246 7.42539 7.22543 7.07031 7.14418 6.72031C6.99339 6.03164 6.85433 5.3375 6.61449 4.67266Z" fill="#2341BD"/>
<path d="M11.0664 8.38809C10.5855 8.35527 10.1047 8.3291 9.62383 8.2959C9.57227 9.0248 9.53281 9.75449 9.48242 10.4834C9.96484 10.5186 10.448 10.5521 10.9312 10.5736C10.9703 9.84473 11.023 9.1166 11.0664 8.38809Z" fill="#2EA9E7"/>
<path d="M15.2406 8.65391C13.9371 8.56875 12.6328 8.48828 11.3293 8.40625C11.2836 9.13633 11.2371 9.86641 11.1918 10.5961C12.1754 10.6602 13.159 10.7207 14.143 10.7836C14.2203 10.7887 14.2969 10.8016 14.3727 10.8164C14.9891 10.9492 15.623 10.8734 16.2469 10.9246C16.5316 10.95 16.8184 11.023 17.0605 11.1797C17.432 11.4156 17.6648 11.8023 17.8652 12.1828C17.4215 12.3957 17.0906 12.8309 17.0246 13.3211C16.9605 13.7242 17.0875 14.1387 17.3281 14.4629C17.3051 14.6645 17.3625 14.8801 17.5215 15.0141C17.7328 15.2043 18.0742 15.1898 18.2906 15.016C18.3523 15.0187 18.4141 15.0219 18.4758 15.0258C18.5125 15.1332 18.5492 15.2406 18.5852 15.3484C19.0582 15.193 19.5285 15.0297 20 14.8699V14.8625C19.9305 14.6645 19.8613 14.4664 19.7977 14.2668C20.0684 13.782 20.0477 13.1508 19.7305 12.6934C19.468 12.3 19.0094 12.0602 18.5395 12.0414C18.2801 11.5059 17.959 10.9703 17.4539 10.632C17.0777 10.3719 16.6184 10.2723 16.168 10.2434C16.3145 9.92773 16.3242 9.54492 16.1535 9.23633C15.9797 8.89805 15.6184 8.675 15.2406 8.65391Z" fill="#2EA9E7"/>
</g>
<defs>
<clipPath id="clip0_1666_9608">
<rect width="20" height="20" fill="white" transform="matrix(-1 0 0 1 20 0)"/>
</clipPath>
</defs>
</svg>
