<svg width="32" height="32" viewBox="0 0 32 32" fill="none" xmlns="http://www.w3.org/2000/svg">
    <defs>
        <linearGradient id="paint0_linear_2187_9181" x1="25.9048" y1="-19.608" x2="-10.5923" y2="-11.0575"
            gradientUnits="userSpaceOnUse">
            <stop stop-color="#6481FF" />
            <stop offset="1" stop-color="#1433B6" />
        </linearGradient>
        <linearGradient id="paint1_linear_2187_9181" x1="24.8712" y1="2.0152" x2="16.7886" y2="4.58095"
            gradientUnits="userSpaceOnUse">
            <stop stop-color="#6481FF" />
            <stop offset="1" stop-color="#1433B6" />
        </linearGradient>
        <clipPath id="clip0_2187_9181">
            <rect width="32" height="32" fill="white" />
        </clipPath>
    </defs>
    <g clip-path="url(#clip0_2187_9181)">
        <path
            d="M25.9159 0.00723709C20.7857 0.459369 17 3.02007 14.7931 6.72197C13.3141 8.57602 10.3597 14.2365 9.28526 17.1996C7.33706 20.8845 5.6382 25.2687 4.30871 29.221C3.49601 31.6379 7.14514 33.2146 7.96249 30.7869C8.95677 27.8299 10.158 24.6329 11.5154 21.6661C12.8625 24.681 14.2313 27.6861 15.701 30.6436C16.8401 32.9394 20.2678 30.9261 19.1329 28.638C17.6197 25.5936 16.2142 22.5006 14.8293 19.3972C14.8469 19.3372 14.8692 19.2787 14.8878 19.2192C15.1185 19.2849 15.373 19.3051 15.6534 19.2518C17.7723 18.854 19.8912 18.4572 22.0117 18.0594C22.9175 17.8892 23.2646 16.8981 23.1219 16.1045C22.6935 13.7264 21.3387 12.072 19.6522 10.5066C19.4019 9.65514 18.5669 8.90193 17.6404 8.15338C19.5188 5.11675 22.5854 3.46858 26.577 3.11681C28.6142 2.93834 27.9355 -0.170202 25.9159 0.00723709ZM18.1955 13.5241C18.7195 14.0694 19.1654 14.6431 19.5022 15.3073C18.4769 15.4998 17.4511 15.6917 16.4257 15.8841C16.9431 15.0512 17.5385 14.2649 18.1955 13.5241Z"
            fill="url(#paint0_linear_2187_9181)" />
        <path
            d="M22.5823 10.817C24.0894 10.817 25.3111 9.59528 25.3111 8.08819C25.3111 6.5811 24.0894 5.35936 22.5823 5.35936C21.0752 5.35936 19.8535 6.5811 19.8535 8.08819C19.8535 9.59528 21.0752 10.817 22.5823 10.817Z"
            fill="url(#paint1_linear_2187_9181)" />
    </g>
</svg>