<svg width="30" height="22" viewBox="0 0 30 22" fill="none" xmlns="http://www.w3.org/2000/svg">
    <defs>
        <linearGradient id="paint0_linear_1601_8124" x1="30" y1="7.46318e-07" x2="24.4754" y2="29.5747"
            gradientUnits="userSpaceOnUse">
            <stop stop-color="#6481FF" />
            <stop offset="1" stop-color="#1433B6" />
        </linearGradient>
    </defs>
    <path fill-rule="evenodd" clip-rule="evenodd"
        d="M11 11C11.0029 10.1154 11.2989 9.25679 11.8417 8.55836C12.3845 7.85993 13.1435 7.36114 14 7.14V0H3C2.20435 0 1.44129 0.316071 0.87868 0.87868C0.31607 1.44129 0 2.20435 0 3V6H5C5.26522 6 5.51957 6.10536 5.70711 6.29289C5.89464 6.48043 6 6.73478 6 7V15C6 15.2652 5.89464 15.5196 5.70711 15.7071C5.51957 15.8946 5.26522 16 5 16H0V19C0 19.7956 0.31607 20.5587 0.87868 21.1213C1.44129 21.6839 2.20435 22 3 22H14V14.86C13.1435 14.6389 12.3845 14.1401 11.8417 13.4416C11.2989 12.7432 11.0029 11.8846 11 11ZM16 0H27C27.7956 0 28.5587 0.316071 29.1213 0.87868C29.6839 1.44129 30 2.20435 30 3V6H25C24.7348 6 24.4804 6.10536 24.2929 6.29289C24.1054 6.48043 24 6.73478 24 7V15C24 15.2652 24.1054 15.5196 24.2929 15.7071C24.4804 15.8946 24.7348 16 25 16H30V19C30 19.7956 29.6839 20.5587 29.1213 21.1213C28.5587 21.6839 27.7956 22 27 22H16V14.86C16.8474 14.6297 17.5954 14.127 18.1287 13.4294C18.6621 12.7318 18.951 11.8781 18.951 11C18.951 10.1219 18.6621 9.26819 18.1287 8.5706C17.5954 7.873 16.8474 7.37028 16 7.14V0ZM26 8H30V14H26V8ZM15 13C16.1046 13 17 12.1046 17 11C17 9.89543 16.1046 9 15 9C13.8954 9 13 9.89543 13 11C13 12.1046 13.8954 13 15 13ZM4 8H0V14H4V8Z"
        fill="url(#paint0_linear_1601_8124)" />
</svg>