<svg width="20" height="20" viewBox="0 0 20 20" fill="none" xmlns="http://www.w3.org/2000/svg">
<g clip-path="url(#clip0_1666_9629)">
<path d="M10.3653 0.370083C10.9267 0.227505 11.554 0.531411 11.7938 1.05719C11.9868 1.4568 11.9466 1.95875 11.6876 2.32008C11.4376 2.68336 10.9868 2.89665 10.5474 2.85329C10.0958 2.82008 9.67978 2.51969 9.50048 2.10485C9.34189 1.74547 9.36298 1.31149 9.56103 0.971645C9.73095 0.671255 10.0298 0.44938 10.3653 0.370083Z" fill="#2EA9E7"/>
<path d="M17.1894 1.79309C17.2569 1.7302 17.348 1.65911 17.4452 1.70208C17.5628 1.74427 17.5714 1.88528 17.5562 1.99075C17.4929 2.56614 17.4316 3.14192 17.3694 3.71731C18.1343 4.36106 18.9023 5.0013 19.6671 5.64544C19.855 5.8013 19.9691 6.03098 19.9999 6.27161V6.44583C19.9452 6.69739 19.846 6.94544 19.6847 7.14817C19.5062 7.3638 19.2257 7.46692 18.9507 7.46575C18.3948 8.08606 17.7898 8.68645 17.0448 9.07669C16.5319 9.34661 15.928 9.49075 15.3538 9.35677C14.7191 9.21106 14.1921 8.76809 13.8183 8.24895C13.2921 7.54622 12.9624 6.71966 12.7058 5.88606C12.2835 6.04427 11.8624 6.20481 11.4398 6.36184C11.2003 6.44348 10.9589 6.53606 10.703 6.547C10.564 6.55598 10.4319 6.47942 10.3558 6.36614C10.2109 6.15481 10.1171 5.91458 10.0085 5.68411C9.80382 6.16692 9.63976 6.66575 9.44601 7.15286C9.92335 7.38294 10.4081 7.59778 10.887 7.82473C11.0628 7.9095 11.2335 8.03294 11.3097 8.21927C11.428 8.50325 11.3683 8.83919 11.2042 9.0927C10.6007 10.0126 9.9964 10.9325 9.39367 11.8533C9.30695 11.9841 9.20812 12.1138 9.07179 12.197C8.8257 12.356 8.4964 12.3661 8.23781 12.2302C7.94679 12.09 7.76202 11.7638 7.78312 11.4427C7.78742 11.2685 7.86202 11.1056 7.95577 10.9622C8.39757 10.2892 8.83937 9.61614 9.28038 8.9427C8.68898 8.6677 8.09484 8.39778 7.50382 8.12122C7.26788 8.01263 7.08156 7.79544 7.02804 7.53919C6.97804 7.34036 7.01906 7.13059 7.10421 6.947C7.60109 5.8552 8.09835 4.76341 8.59445 3.67122C8.67804 3.49036 8.75148 3.29778 8.89132 3.15091C9.09327 2.93567 9.40031 2.82434 9.69327 2.86497C10.0237 2.91263 10.3566 3.08841 10.512 3.39505C10.6456 3.63489 10.648 3.92356 10.5671 4.18098C10.7319 4.54934 10.8991 4.91614 11.0655 5.28372C11.5226 5.11731 11.9796 4.95169 12.4359 4.78294C12.5679 4.73684 12.7101 4.69309 12.8511 4.72278C13.0409 4.75599 13.2054 4.89856 13.2698 5.07942C13.323 5.2345 13.2605 5.4013 13.3112 5.55677C13.5472 6.37981 13.873 7.19036 14.3823 7.8845C14.6265 8.19973 14.9261 8.48997 15.3026 8.63763C15.6933 8.79309 16.137 8.74622 16.5187 8.58645C17.2101 8.29817 17.7593 7.76575 18.2659 7.22864C17.8859 7.05833 17.5062 6.88802 17.1257 6.71887C16.998 7.01263 16.8659 7.30481 16.7405 7.59973C16.7089 7.66731 16.6808 7.74466 16.6109 7.78138C16.3734 7.92786 16.1073 8.0513 15.8237 8.05872C15.5433 8.06419 15.2972 7.89544 15.1097 7.70169C14.7081 7.28411 14.4702 6.74661 14.2448 6.22161C14.6163 5.67278 14.9792 5.11848 15.3495 4.56927C15.4089 4.48177 15.4605 4.3888 15.503 4.29192C15.7136 3.81419 15.9304 3.3388 16.1401 2.86067C16.1917 2.72708 16.3069 2.63723 16.4073 2.54153C16.6691 2.29309 16.9288 2.0427 17.1894 1.79309Z" fill="#2EA9E7"/>
<path d="M1.30391 8.26167C1.65742 8.03706 2.09805 7.99761 2.50391 8.0648C3.13047 8.16714 3.70039 8.47261 4.22539 8.81675C4.4207 8.67652 4.60898 8.52261 4.83008 8.42378C5.20937 8.23863 5.63437 8.16089 6.05508 8.16949C6.22734 8.1773 6.40547 8.14878 6.57422 8.18511C6.73242 8.38042 6.90312 8.57378 7.1332 8.68667C7.51328 8.8773 7.90508 9.0437 8.28906 9.22574C8.03203 9.61949 7.77422 10.0125 7.51602 10.4058C7.37813 10.6144 7.23555 10.8273 7.16875 11.0714C7.03398 11.5351 7.14062 12.0609 7.44648 12.4351C7.72969 12.7898 8.17734 13.0066 8.63203 13C9.14375 13.0043 9.63906 12.723 9.91055 12.2914C10.5152 11.3714 11.1176 10.4496 11.7223 9.52925C11.8445 9.34019 11.9555 9.13902 12.0027 8.91675C12.0625 8.67066 12.0383 8.4148 11.9867 8.16988C12.3074 8.17105 12.6285 8.16597 12.9496 8.17261C13.1832 8.55542 13.459 8.9148 13.7859 9.22261C14.2879 9.70542 14.9488 10.0359 15.6496 10.0765C15.3562 10.7433 15.0648 11.4109 14.7684 12.0765C14.6902 12.232 14.7379 12.4093 14.7406 12.5753C14.8582 14.6457 14.9742 16.716 15.0918 18.7863C15.0984 18.9398 15.1203 19.0945 15.1016 19.2484C15.066 19.4273 14.9285 19.5816 14.7555 19.639C14.5332 19.7062 14.2707 19.5984 14.168 19.3878C14.0961 19.2347 14.0812 19.0632 14.0461 18.8996C13.8582 17.9449 13.6766 16.989 13.4836 16.0355C13.4129 16.1746 13.359 16.3214 13.3043 16.4679C12.9703 17.3324 12.6359 18.1964 12.3023 19.0613C12.2477 19.1972 12.207 19.3421 12.1203 19.4628C11.973 19.6605 11.6738 19.7261 11.4609 19.5984C11.2578 19.4929 11.1539 19.25 11.1953 19.0281C11.393 17.7238 11.5969 16.4207 11.7977 15.1168C11.8141 15.0476 11.7977 14.9789 11.7648 14.9179C11.5227 14.4378 11.282 13.9574 11.0434 13.4757C9.79922 13.4714 8.55508 13.475 7.31133 13.4738C6.92539 14.0316 6.53984 14.589 6.15586 15.1476C6.21523 16.4406 6.2707 17.7335 6.33125 19.0265C6.39453 19.3558 6.0793 19.7027 5.7418 19.6121C5.55703 19.5773 5.41562 19.4234 5.36602 19.2464C5.10352 18.3566 4.85586 17.4621 4.58984 16.573C4.42578 17.455 4.26953 18.339 4.10273 19.221C4.05977 19.4953 3.74648 19.6945 3.48125 19.6015C3.27734 19.546 3.1418 19.3464 3.13242 19.1406C3.04961 17.7082 2.975 16.2753 2.89375 14.8429C2.8793 14.6554 2.90664 14.4605 3.01406 14.3019C3.36133 13.7636 3.71523 13.23 4.06445 12.6929C3.65313 12.2707 3.37422 11.7164 3.31133 11.1281C3.24102 10.5644 3.38047 9.98941 3.65781 9.49761C3.24414 9.47925 2.8625 9.72066 2.63594 10.0558C2.25195 10.5859 2.19102 11.2554 2.05469 11.8757C1.91484 12.5019 1.68633 13.1242 1.28477 13.6316C1.0207 13.9605 0.673047 14.2343 0.268359 14.3644C0.148438 14.4121 0.0386719 14.3183 0 14.2105V14.123C0.105469 13.941 0.291797 13.8253 0.405859 13.6496C0.576953 13.4234 0.650391 13.1293 0.599219 12.85C0.512109 12.3949 0.334766 11.9613 0.265234 11.5023C0.153906 10.7847 0.264844 10.046 0.503906 9.36519C0.655859 8.93277 0.905078 8.50777 1.30391 8.26167Z" fill="#2341BD"/>
</g>
<defs>
<clipPath id="clip0_1666_9629">
<rect width="20" height="20" fill="white"/>
</clipPath>
</defs>
</svg>
