<svg width="20" height="20" viewBox="0 0 20 20" fill="none" xmlns="http://www.w3.org/2000/svg">
<g clip-path="url(#clip0_1666_9637)">
<path d="M10.0607 0.278893C10.2031 0.110348 10.4157 0.00221122 10.6379 0.000346787C10.9429 -0.00934827 11.2413 0.185299 11.3546 0.468693C11.4527 0.6969 11.424 0.968361 11.2935 1.17792C10.7349 2.13177 9.14488 4.05936 8.58443 5.01208C9.5875 5.82722 10.8261 6.63228 11.8333 7.44256C13.6355 5.43158 15.4384 3.42098 17.2405 1.41C17.3584 1.27576 17.5034 1.16054 17.6757 1.10609C18.0042 0.990126 18.3935 1.08782 18.6303 1.34325C18.8846 1.60688 18.9528 2.02899 18.7925 2.35862C18.6982 2.54693 18.5546 2.70354 18.4338 2.87395C16.491 5.46589 14.5469 7.92545 12.6038 10.517C12.5732 10.5524 12.563 10.7303 12.5634 10.7769C12.4236 13.562 12.2804 16.3471 12.1391 19.1326C12.1312 19.3149 12.0861 19.4991 11.9821 19.6513C11.8206 19.903 11.5287 20.0555 11.2318 20.0629H11.1632C10.8563 20.0361 10.564 19.8578 10.4201 19.5823C10.2828 19.3444 10.3067 19.0613 10.2873 18.7981C10.1553 16.2561 10.0323 13.7138 9.89504 11.1722C9.74961 11.0797 9.60754 10.9813 9.47554 10.8705C8.50007 10.0863 7.52497 9.30215 6.54838 8.51946C6.30265 8.89533 6.05766 9.27232 5.81342 9.64931C6.17698 9.84582 6.54167 10.0408 6.90449 10.2388C7.07974 10.3321 7.22405 10.4879 7.28483 10.6788C7.3911 10.9757 7.28483 11.3318 7.03425 11.5227C6.83476 11.683 6.55397 11.7267 6.31234 11.645C5.56396 11.4008 4.81595 11.155 4.06793 10.9089C3.81661 10.831 3.59549 10.649 3.49182 10.4048C3.37399 10.146 3.39487 9.83575 3.53321 9.5889C4.12499 8.49112 4.97704 7.26015 5.56993 6.16274C5.67621 5.97332 6.07235 5.32538 6.07235 5.32538L6.74224 4.48802C6.74224 4.48802 7.0858 4.02322 7.24465 3.81813C8.00683 2.87995 9.27278 1.19582 10.0607 0.278893Z" fill="#2341BD"/>
<path d="M3.86612 0.992343C4.35535 0.923359 4.86658 1.02441 5.29204 1.27648C5.75815 1.54944 6.11463 2.00063 6.27423 2.51671C6.43904 3.03763 6.39691 3.61896 6.16273 4.11192C5.95765 4.54968 5.60191 4.91362 5.17123 5.13251C4.72787 5.35997 4.20545 5.42933 3.71846 5.32343C3.21767 5.21976 2.75753 4.93413 2.44356 4.53029C2.09118 4.08283 1.9204 3.49516 1.98789 2.92875C2.03898 2.4507 2.25301 1.99243 2.58712 1.64713C2.92458 1.29438 3.38324 1.06095 3.86612 0.992343Z" fill="#2EA9E7"/>
</g>
<defs>
<clipPath id="clip0_1666_9637">
<rect width="20" height="20" fill="white"/>
</clipPath>
</defs>
</svg>
