<svg width="24" height="24" viewBox="0 0 24 24" fill="none" xmlns="http://www.w3.org/2000/svg">
<path d="M3.76921 3.02671C3.85546 3.00655 3.94452 3.00187 4.03312 2.99999C9.36046 3.00093 14.6873 2.99812 20.0142 3.0014C20.5542 2.9939 21.0258 3.4903 20.9991 4.02843C20.9981 9.35718 21.0009 14.6859 20.9976 20.0147C21.0037 20.5369 20.5392 21.0028 20.017 20.9986C14.7666 21.0019 9.51562 20.9986 4.26515 21.0005C4.06452 20.9995 3.8564 21.0136 3.66515 20.9419C3.32765 20.8256 3.06702 20.5148 3.01312 20.1619C2.99109 20.0048 2.99999 19.8455 2.99906 19.6875C2.99906 14.4689 2.99906 9.25077 2.99906 4.03218C2.97796 3.56952 3.31687 3.12609 3.76921 3.02671ZM8.99952 6.99984C8.99905 10.3331 8.99859 13.6669 8.99952 17.0001C9.66609 16.9997 10.3326 17.0001 10.9987 16.9997C10.9992 15.9998 10.9987 15 10.9992 14.0001C11.5055 13.9992 12.0117 14.0011 12.518 13.9992C13.1517 13.9959 13.7845 13.8178 14.3245 13.4855C14.9737 13.0917 15.4851 12.4776 15.7594 11.7703C16.027 11.0869 16.0716 10.3181 15.8826 9.6089C15.698 8.89874 15.2812 8.25187 14.7122 7.78874C14.0986 7.28484 13.3087 7.00171 12.5151 7.0003C11.3433 6.99937 10.1714 7.0003 8.99952 6.99984Z" fill="#4D5DEE"/>
<path d="M10.9983 8.99998C11.5022 9.00045 12.0065 8.99811 12.5109 9.00092C12.8718 9.00327 13.23 9.14108 13.4986 9.38342C13.874 9.71436 14.0615 10.2426 13.9781 10.7362C13.8834 11.4037 13.2872 11.955 12.6136 11.9934C12.0754 12.0084 11.5364 11.9962 10.9983 12C10.9983 10.9997 10.9978 9.99983 10.9983 8.99998Z" fill="#4D5DEE"/>
</svg>
