<svg width="20" height="20" viewBox="0 0 20 20" fill="none" xmlns="http://www.w3.org/2000/svg">
<g clip-path="url(#clip0_1666_9574)">
<path d="M1.49187 5.38437C2.25398 5.38359 3.0157 5.38359 3.77781 5.38437C3.7782 5.77461 3.7782 6.16523 3.77781 6.55547C3.01609 6.55625 2.25398 6.55586 1.49187 6.55586C1.49148 6.16523 1.49187 5.775 1.49187 5.38437Z" fill="#2EA9E7"/>
<path d="M5.59754 5.3834C6.77528 5.38262 7.95301 5.38262 9.13075 5.3834C9.13153 6.34902 9.13036 7.31426 9.13153 8.27988C7.94715 8.27246 6.78582 8.8709 6.09442 9.83027C5.92918 9.66035 5.76903 9.48574 5.60067 9.31895C5.59325 8.00723 5.5995 6.69551 5.59754 5.3834Z" fill="#2341BD"/>
<path d="M13.9092 7.81754C14.9381 7.26402 16.0967 6.95309 17.2643 6.91871C17.7455 6.90934 18.2271 6.91598 18.7084 6.91441C18.7092 7.93238 18.708 8.95035 18.7092 9.96832C19.1396 9.9691 19.5697 9.96832 20.0002 9.96871V13.4871C17.5311 13.4867 15.0623 13.4875 12.5936 13.4867C12.8553 12.8554 12.9455 12.1543 12.8428 11.4781C12.7213 10.6375 12.2959 9.85113 11.6748 9.27418C12.0693 9.01129 12.4615 8.74449 12.8557 8.48082C13.1994 8.2484 13.5412 8.0109 13.9092 7.81754Z" fill="#2341BD"/>
<path d="M0 8.0918C1.25938 8.09219 2.51836 8.09141 3.77773 8.09258C3.77773 8.48281 3.77813 8.87305 3.77773 9.26328C2.51836 9.26484 1.25938 9.26367 0 9.26406V8.0918Z" fill="#2EA9E7"/>
<path d="M8.77066 9.48232C9.35894 9.39677 9.97574 9.52177 10.482 9.83427C11.0066 10.1522 11.4105 10.6636 11.5961 11.2487C11.7839 11.8308 11.757 12.4804 11.5168 13.0433C11.3273 13.4921 11.0089 13.8854 10.6082 14.1624C10.1054 14.514 9.4734 14.6741 8.86363 14.6077C8.22457 14.5436 7.61754 14.2253 7.19488 13.7429C6.82496 13.3237 6.59801 12.7815 6.56051 12.2237C6.51129 11.5851 6.71324 10.9315 7.1148 10.4323C7.51832 9.91943 8.12379 9.57177 8.77066 9.48232Z" fill="#2EA9E7"/>
<path d="M1.49224 10.8C2.25395 10.8 3.01567 10.7996 3.77739 10.8C3.77739 11.191 3.77974 11.5816 3.77622 11.9726C3.01489 11.9707 2.25317 11.973 1.49185 11.9715C1.49224 11.5808 1.49106 11.1902 1.49224 10.8Z" fill="#2EA9E7"/>
</g>
<defs>
<clipPath id="clip0_1666_9574">
<rect width="20" height="20" fill="white"/>
</clipPath>
</defs>
</svg>
