<svg width="24" height="24" viewBox="0 0 24 24" fill="none" xmlns="http://www.w3.org/2000/svg">
<g clip-path="url(#clip0_276_3022)">
<path d="M12.5796 0.168338C12.8923 0.0638071 13.2607 0.224588 13.406 0.518026C13.5087 0.70412 13.4834 0.92162 13.4857 1.12506C13.4848 8.4685 13.4862 15.8124 13.4848 23.1563C13.4946 23.528 13.1684 23.8618 12.7976 23.8632C12.4165 23.8777 12.0724 23.5383 12.0827 23.1568C12.0818 15.7205 12.0818 8.28428 12.0827 0.847557C12.0762 0.543807 12.2876 0.253182 12.5796 0.168338Z" fill="#4D5DEE"/>
<path d="M19.1503 0.878975C19.6143 0.790382 20.1108 0.890225 20.5031 1.15413C20.8983 1.41382 21.1851 1.83288 21.2822 2.29601C21.3942 2.80273 21.2765 3.35351 20.9667 3.76929C20.6592 4.19398 20.1609 4.47194 19.6378 4.51132C19.1301 4.55726 18.6093 4.37398 18.2381 4.02569C17.8176 3.64085 17.5992 3.0521 17.6634 2.48632C17.7361 1.70069 18.3722 1.01116 19.1503 0.878975Z" fill="#4D5DEE"/>
<path d="M5.49998 1.00604C5.9242 0.958227 6.36342 1.0651 6.71733 1.30463C7.13405 1.58073 7.42561 2.03682 7.50155 2.53135C7.56577 2.92604 7.49498 3.34088 7.3028 3.69151C7.06373 4.13401 6.63295 4.46823 6.14405 4.58776C5.6467 4.71432 5.0978 4.61823 4.67545 4.32666C4.24842 4.03838 3.95311 3.56213 3.89217 3.04979C3.8317 2.59323 3.95311 2.11604 4.22639 1.74526C4.52217 1.33416 4.99608 1.05854 5.49998 1.00604Z" fill="#4D5DEE"/>
<path d="M16.7743 5.12958C17.0551 5.08739 17.3396 5.10239 17.6227 5.10005C18.9048 5.10005 20.1863 5.10005 21.4683 5.10005C21.849 5.09583 22.2408 5.09208 22.6018 5.23036C23.3855 5.5027 23.9612 6.26958 24.0005 7.09974V13.794C23.9658 14.0115 23.8683 14.2243 23.6982 14.3686C23.4202 14.6199 22.9777 14.6602 22.6594 14.4629C22.3908 14.3058 22.2226 14.0002 22.2287 13.6899C22.2282 11.6419 22.2277 9.59395 22.2287 7.54645C22.224 7.39599 22.2465 7.24083 22.2043 7.09458C22.1457 6.95255 21.9924 6.89583 21.8537 6.86536C21.8513 11.9349 21.8541 17.0049 21.8523 22.0744C21.8762 22.6575 21.3488 23.1816 20.7666 23.1558C20.3105 23.1558 19.8835 22.8258 19.763 22.3875C19.7058 22.1794 19.7232 21.9619 19.7213 21.7491C19.7218 19.0308 19.7208 16.3125 19.7218 13.5943C19.5685 13.5938 19.4157 13.5933 19.2629 13.5938C19.2624 16.2975 19.2624 19.0008 19.2624 21.7041C19.261 21.8827 19.2708 22.0618 19.2512 22.2394C19.2048 22.6027 18.954 22.9304 18.616 23.071C18.2738 23.2205 17.8548 23.169 17.558 22.943C17.288 22.7452 17.1235 22.4157 17.1282 22.081C17.1263 17.0077 17.1315 11.9344 17.1258 6.86114C16.9491 6.89583 16.7452 7.01114 16.7541 7.21692C16.7499 9.37364 16.7546 11.5308 16.7518 13.6875C16.7658 14.1052 16.4471 14.5008 16.0346 14.5721C15.6633 14.6508 15.2602 14.4563 15.0854 14.1211C14.9532 13.8896 14.9818 13.6144 14.9799 13.3585C14.9804 11.3424 14.9808 9.3263 14.9794 7.3102C14.9748 6.99333 15.0212 6.67317 15.151 6.38255C15.4308 5.72349 16.0679 5.23786 16.7743 5.12958Z" fill="#4D5DEE"/>
<path d="M2.90812 5.71832C3.23156 5.40754 3.67453 5.22848 4.12266 5.22614C5.15484 5.22332 6.18656 5.22567 7.21875 5.22473C7.63031 5.22004 8.04516 5.35129 8.36672 5.61192C8.81719 5.97379 9.08344 6.50911 9.26906 7.04489C9.91687 8.90254 10.5867 10.7522 11.2608 12.6C11.3217 12.7707 11.3967 12.9422 11.3953 13.1269C11.3991 13.4288 11.2331 13.726 10.9734 13.8807C10.5323 14.1699 9.87141 13.9477 9.69703 13.4489C9.19172 12.0736 8.69625 10.6946 8.20406 9.31411C8.22422 9.50676 8.25891 9.69754 8.29313 9.88786C8.57531 11.5144 8.85656 13.141 9.13875 14.7675C9.16453 14.9227 9.20203 15.0769 9.20719 15.2349C9.21234 15.4754 9.0075 15.6975 8.76656 15.7097C8.52422 15.7257 8.28141 15.7107 8.03859 15.7163C8.03906 17.7272 8.03859 19.7382 8.03906 21.7491C8.03719 21.954 8.05313 22.1616 8.00484 22.3627C7.92047 22.7049 7.65094 22.9941 7.31531 23.1024C6.96281 23.2229 6.54984 23.1371 6.27563 22.8844C6.04875 22.6847 5.92219 22.3838 5.92641 22.0824C5.92641 19.9604 5.92594 17.8388 5.92641 15.7168C5.77453 15.7154 5.62219 15.7154 5.47031 15.7158C5.47031 17.7422 5.46984 19.7686 5.47078 21.7955C5.46891 21.9975 5.48484 22.2047 5.42578 22.4011C5.33063 22.7316 5.06203 23.0049 4.73344 23.1071C4.38141 23.2215 3.97266 23.1329 3.70219 22.8797C3.47813 22.6786 3.3525 22.3796 3.35766 22.0791C3.35766 19.958 3.35812 17.8369 3.35766 15.7163C3.09844 15.7083 2.83734 15.7322 2.57906 15.7032C2.30578 15.66 2.12953 15.3586 2.20078 15.0957C2.49609 13.3899 2.79234 11.6841 3.08766 9.97832C3.12469 9.76645 3.16641 9.55457 3.18563 9.34036C2.69438 10.7025 2.20734 12.0661 1.70859 13.4255C1.56984 13.8375 1.09922 14.0954 0.677813 13.9861C0.321094 13.9083 0.0525 13.59 0 13.2338V13.0313C0.0370313 12.8611 0.099375 12.6985 0.159375 12.5358C0.817031 10.7302 1.47141 8.92364 2.10469 7.10957C2.27672 6.60004 2.51063 6.09192 2.90812 5.71832Z" fill="#4D5DEE"/>
</g>
<defs>
<clipPath id="clip0_276_3022">
<rect width="24" height="24" fill="white"/>
</clipPath>
</defs>
</svg>
