<svg width="20" height="20" viewBox="0 0 20 20" fill="none" xmlns="http://www.w3.org/2000/svg">
<path d="M5.80687 0H5.88265C6.47679 0.0132812 7.05609 0.332812 7.36507 0.843359C7.63109 1.26875 7.69632 1.80742 7.55531 2.2875C7.1475 2.29336 6.7389 2.27617 6.33148 2.29687C5.74047 2.33398 5.22562 2.78945 5.07718 3.35664C4.61859 3.12305 4.26234 2.69062 4.14593 2.18711C4.00804 1.62578 4.16742 1 4.56273 0.577344C4.87875 0.226953 5.33812 0.0253906 5.80687 0Z" fill="#2341BD"/>
<path d="M10.8759 1.42479C11.1275 1.27284 11.4599 1.26698 11.7169 1.40995C12.0248 1.57597 12.2083 1.94394 12.1474 2.29003C11.4419 2.28378 10.7365 2.28847 10.031 2.28573C10.2095 2.08886 10.3916 1.89511 10.5708 1.69862C10.663 1.59784 10.7572 1.49511 10.8759 1.42479Z" fill="#2341BD"/>
<path d="M16.4868 2.46558C16.6614 2.29761 16.979 2.33941 17.1021 2.54878C17.1981 2.70503 17.163 2.89761 17.1688 3.07144C17.4278 3.08706 17.7067 3.0273 17.9478 3.14917C18.1821 3.26519 18.3333 3.52651 18.3177 3.78745C18.3095 4.04487 18.1396 4.28745 17.9009 4.38433C17.763 4.44448 17.6103 4.43941 17.463 4.43901C16.0778 4.43472 14.6923 4.44566 13.3075 4.43355C13.3458 3.92769 13.1384 3.41714 12.7681 3.073C13.9622 3.07183 15.1563 3.073 16.3505 3.07222C16.354 2.86714 16.3126 2.61636 16.4868 2.46558Z" fill="#2EA9E7"/>
<path d="M6.18135 3.17406C6.29854 3.11038 6.43526 3.10492 6.56534 3.10609C7.86768 3.10843 9.16963 3.10492 10.4716 3.10804C9.83018 3.6471 9.18682 4.18382 8.54659 4.72406C7.64932 4.69984 6.75206 4.6682 5.85479 4.64163C5.85362 4.33187 5.85206 4.02171 5.85479 3.71195C5.85167 3.48968 5.98213 3.27328 6.18135 3.17406Z" fill="#2EA9E7"/>
<path d="M11.3029 3.52916C11.585 3.40299 11.935 3.44986 12.1737 3.64635C12.4014 3.82721 12.5287 4.12916 12.4862 4.41861C12.4596 4.64908 12.3276 4.85611 12.149 4.99986C11.3561 5.66549 10.5623 6.32994 9.76935 6.99557C9.6256 7.11588 9.48224 7.24791 9.30021 7.30689C9.12131 7.37096 8.92443 7.36041 8.74396 7.30846C7.62052 6.9815 6.50021 6.64283 5.3756 6.32057C6.28459 6.84439 7.19709 7.36197 8.11154 7.87604C8.12131 8.97486 8.11271 10.0741 8.11545 11.1733C8.11584 11.2276 8.12717 11.2815 8.14553 11.3327C8.45568 12.1733 8.76349 13.0147 9.0717 13.8557C9.14435 14.0491 9.15529 14.262 9.11193 14.4631C8.78459 16.0104 8.45646 17.5573 8.12951 19.1042C8.0881 19.3073 8.00998 19.5085 7.86584 19.6612C7.68849 19.8608 7.4299 19.9753 7.16623 19.9999H7.05646C6.72599 19.9745 6.40724 19.7944 6.23693 19.5069C6.08888 19.2733 6.05607 18.9819 6.11623 18.7151C6.36428 17.5432 6.6131 16.3717 6.86154 15.1999C6.91896 14.8991 6.99982 14.6022 7.04514 14.2995C6.73615 13.4112 6.3967 12.5319 6.07912 11.646C6.04396 11.5522 6.00842 11.4331 5.89709 11.4077C5.75646 11.3635 5.62053 11.4948 5.63381 11.635C5.59006 12.6397 5.54982 13.6444 5.50685 14.6491C5.50334 14.8233 5.45724 14.9928 5.3881 15.1518C4.80802 16.5538 4.23381 17.9581 3.65178 19.3596C3.51076 19.7151 3.16271 19.9604 2.78537 19.9999H2.64748C2.24709 19.9706 1.87131 19.7022 1.74201 19.3178C1.64396 19.0538 1.67482 18.7573 1.79006 18.5038C2.31076 17.2413 2.83068 15.9784 3.35138 14.7159C3.39943 14.5932 3.46974 14.4737 3.46974 14.3381C3.50763 13.3483 3.55373 12.3588 3.59045 11.3686C3.59318 9.34986 3.58967 7.33072 3.5924 5.31158C3.58068 4.8983 3.78967 4.48541 4.14084 4.26314C4.40217 4.08541 4.72717 4.05885 5.03459 4.069C5.03381 4.20455 5.0342 4.33971 5.03654 4.47525C6.30138 4.83307 7.56545 5.19478 8.8299 5.55377C9.51857 4.97838 10.2057 4.40064 10.8932 3.82408C11.0229 3.71705 11.1471 3.59752 11.3029 3.52916Z" fill="#2341BD"/>
</svg>
