<svg width="24" height="24" viewBox="0 0 24 24" fill="none" xmlns="http://www.w3.org/2000/svg">
<g clip-path="url(#clip0_276_2936)">
<path d="M17.1909 0H17.6521C19.0701 0.0351562 20.4726 0.54375 21.5741 1.43953C22.6569 2.30953 23.451 3.53437 23.7937 4.88109C23.9198 5.35969 23.9802 5.85328 24.0004 6.34734V24H22.0002C22.0002 18.187 22.0002 12.3745 22.0002 6.56156C22.0293 5.08078 21.2676 3.61781 20.0395 2.79047C19.1638 2.18625 18.0684 1.91531 17.0118 2.0325C15.9848 2.14031 15.0037 2.62078 14.2837 3.36C13.5679 4.08516 13.117 5.06109 13.0204 6.07547C14.263 6.26109 15.4541 6.78422 16.4254 7.5825C17.5035 8.46047 18.3107 9.66703 18.7059 11.0006C14.2354 10.9997 9.76539 10.9997 5.29492 11.0006C5.62914 9.86625 6.2643 8.82422 7.10992 7.99828C8.16414 6.96375 9.55258 6.27844 11.0146 6.07031C11.069 5.33766 11.2373 4.61203 11.5298 3.9375C12.1012 2.59875 13.1395 1.46859 14.421 0.779063C15.2709 0.314531 16.2266 0.0642188 17.1909 0Z" fill="#4D5DEE"/>
<path d="M4 12.0009C9.33344 11.9995 14.6669 11.9995 20.0003 12.0009C19.9998 12.667 20.0008 13.3336 19.9998 13.9997C14.6669 14.0006 9.33344 14.0002 4.00047 14.0002C3.99953 13.3336 4.00047 12.667 4 12.0009Z" fill="#4D5DEE"/>
<path d="M7.75866 15.0296C8.09241 14.9443 8.466 15.0479 8.70694 15.294C8.96053 15.5433 9.06132 15.9338 8.96007 16.2746C8.85179 16.6735 8.47397 16.9782 8.06054 16.9979C7.55147 17.0405 7.05928 16.6322 7.00772 16.1241C6.93507 15.6375 7.28007 15.1383 7.75866 15.0296Z" fill="#4D5DEE"/>
<path d="M11.7852 15.0234C12.0777 14.9578 12.3973 15.0328 12.6294 15.2231C12.8942 15.4345 13.0367 15.787 12.9917 16.1236C12.9523 16.463 12.7241 16.7742 12.4105 16.9111C12.1006 17.054 11.7172 17.0212 11.4373 16.8248C11.1223 16.6167 10.9503 16.2178 11.0127 15.8456C11.0689 15.4472 11.3914 15.105 11.7852 15.0234Z" fill="#4D5DEE"/>
<path d="M15.772 15.0262C16.0832 14.9522 16.4277 15.038 16.6649 15.2536C16.8974 15.458 17.0245 15.7744 16.9963 16.0828C16.9696 16.4414 16.7315 16.7747 16.4006 16.9153C16.1001 17.0494 15.7331 17.0217 15.4593 16.8384C15.1424 16.6416 14.9601 16.2548 15.0074 15.885C15.0487 15.4753 15.3707 15.1153 15.772 15.0262Z" fill="#4D5DEE"/>
<path d="M7.75352 18.031C8.06665 17.9499 8.41681 18.0324 8.65868 18.248C8.90806 18.4627 9.03743 18.8063 8.99055 19.1321C8.94837 19.4762 8.71118 19.7869 8.39102 19.9196C8.09102 20.0499 7.7268 20.019 7.45493 19.8362C7.14321 19.6393 6.96321 19.2591 7.00634 18.8935C7.04384 18.4871 7.35743 18.1266 7.75352 18.031Z" fill="#4D5DEE"/>
<path d="M11.7829 18.0239C12.0758 17.9574 12.3969 18.0324 12.6294 18.2232C12.8948 18.4346 13.0368 18.7871 12.9918 19.1236C12.9524 19.4635 12.7237 19.7743 12.4101 19.9111C12.0998 20.0541 11.7158 20.0213 11.4365 19.8239C11.121 19.6153 10.9494 19.216 11.0132 18.8433C11.0704 18.4468 11.391 18.1064 11.7829 18.0239Z" fill="#4D5DEE"/>
<path d="M15.7714 18.0267C16.0943 17.9489 16.4525 18.0455 16.6906 18.2775C16.9423 18.5133 17.0543 18.8855 16.9747 19.2211C16.9048 19.5385 16.6695 19.8131 16.3662 19.9299C16.0625 20.0517 15.6987 20.0114 15.432 19.8202C15.1315 19.6191 14.9618 19.2436 15.0073 18.8855C15.0481 18.4758 15.3701 18.1158 15.7714 18.0267Z" fill="#4D5DEE"/>
<path d="M7.75491 21.0305C8.06709 20.9499 8.41584 21.0324 8.65725 21.2466C8.90756 21.4613 9.03741 21.8063 8.99053 22.133C8.94787 22.478 8.70928 22.7888 8.38819 22.921C8.07647 23.055 7.69772 23.0147 7.4235 22.815C7.10287 22.5957 6.93834 22.1775 7.02131 21.7983C7.09256 21.4299 7.39069 21.1186 7.75491 21.0305Z" fill="#4D5DEE"/>
<path d="M11.7813 21.0244C12.0752 20.9574 12.3967 21.0319 12.6297 21.2236C12.8946 21.435 13.0371 21.788 12.9916 22.1245C12.9517 22.4639 12.723 22.7752 12.4089 22.9116C12.1 23.0536 11.7185 23.0213 11.4396 22.8263C11.1213 22.6172 10.9478 22.2141 11.0139 21.8391C11.0721 21.4449 11.3913 21.1069 11.7813 21.0244Z" fill="#4D5DEE"/>
<path d="M15.7713 21.0267C16.0418 20.9625 16.3385 21.0169 16.5663 21.1763C16.8443 21.3647 17.0145 21.6998 16.9985 22.0359C16.9901 22.3988 16.7623 22.7452 16.4342 22.8998C16.1281 23.0503 15.7442 23.0292 15.4601 22.8389C15.1432 22.6425 14.9604 22.2558 15.0073 21.8859C15.0481 21.4763 15.3701 21.1153 15.7713 21.0267Z" fill="#4D5DEE"/>
</g>
<defs>
<clipPath id="clip0_276_2936">
<rect width="24" height="24" fill="white"/>
</clipPath>
</defs>
</svg>
