<svg width="20" height="20" viewBox="0 0 20 20" fill="none" xmlns="http://www.w3.org/2000/svg">
<g clip-path="url(#clip0_1666_9601)">
<path d="M10.4021 0H10.5279C10.9252 0.0292969 11.3185 0.156641 11.6416 0.393359C12.1521 0.758984 12.4881 1.36133 12.5146 1.99062C12.5435 2.54805 12.34 3.11328 11.9607 3.52305C11.5725 3.94492 11.0041 4.19336 10.4307 4.19492C9.9666 4.2 9.50058 4.04531 9.13535 3.75781C8.5916 3.3375 8.27285 2.63867 8.32792 1.95195C8.36582 1.38828 8.64511 0.847656 9.07831 0.486328C9.44511 0.175 9.92363 0.0105469 10.4021 0Z" fill="#2EA9E7"/>
<path d="M13.7876 3.14121C15.0388 3.02246 16.2904 2.90723 17.5419 2.79239C17.7989 2.76504 18.0665 2.85567 18.247 3.04239C18.4806 3.27207 18.5564 3.64239 18.4349 3.9459C18.3294 4.22715 18.0654 4.43809 17.7689 4.48223C16.5743 4.65918 15.3771 4.81856 14.1833 4.99903C13.5001 5.35371 12.8329 5.74121 12.1529 6.10254C12.1419 6.2959 12.1134 6.48809 12.0622 6.6752C11.7493 7.85098 11.4322 9.02598 11.1208 10.2025C11.8095 10.3654 12.4993 10.5225 13.188 10.6865C13.4677 10.7514 13.7169 10.9381 13.8462 11.1959C14.0208 11.5217 13.9751 11.9389 13.756 12.2326C12.7146 13.69 11.6712 15.1467 10.629 16.6037C10.4939 16.8053 10.2818 16.9592 10.0384 16.9939C9.67668 17.0607 9.28879 16.8568 9.13489 16.5236C9.00363 16.2561 9.02942 15.9248 9.19348 15.6772C9.90129 14.5705 10.6087 13.4635 11.3197 12.3588C10.9165 12.2779 10.5114 12.2072 10.1072 12.1311C10.115 12.3689 10.0431 12.6061 9.89699 12.7943C9.15442 13.808 8.41106 14.8209 7.66848 15.8346C7.56496 15.976 7.4634 16.1272 7.31067 16.2205C7.03059 16.4018 6.64465 16.3963 6.37121 16.2037C6.00676 15.9662 5.89309 15.4365 6.12004 15.067C6.70481 14.1225 7.31262 13.1912 7.89348 12.2443C7.49426 11.8881 7.19074 11.4326 6.98606 10.9404C6.79699 10.4576 6.75168 9.91856 6.87512 9.41387C7.17707 8.24239 7.50793 7.07793 7.80324 5.90449C7.02473 5.81114 6.24895 5.69629 5.47121 5.59785C5.38449 5.59043 5.30012 5.61973 5.21574 5.63575C4.26535 5.83848 3.31457 6.04043 2.36418 6.24239C2.14231 6.29668 1.89504 6.23926 1.72824 6.08145C1.50832 5.88731 1.44543 5.54356 1.57551 5.28223C1.65637 5.10918 1.81496 4.98067 1.99504 4.92285C3.03723 4.56973 4.07863 4.21387 5.1216 3.86348C5.68488 3.74981 6.26418 3.78418 6.83567 3.7834C7.50168 3.81309 8.16731 3.85606 8.83059 3.92168C9.09856 4.17637 9.41223 4.38887 9.76887 4.49785C10.6665 4.7959 11.7322 4.45762 12.2849 3.68848C12.3525 3.56621 12.5048 3.56114 12.6204 3.51035C13.0075 3.38223 13.3853 3.21582 13.7876 3.14121Z" fill="#2341BD"/>
<path d="M2.35919 16.2854C2.25724 16.0768 2.3674 15.8022 2.58263 15.7178C2.75451 15.6416 2.93927 15.7186 3.1088 15.7627C5.87677 16.5358 8.64552 17.3065 11.4139 18.0783C11.8471 18.1901 12.2861 18.3233 12.7389 18.3026C12.9451 18.2943 13.1623 18.2229 13.2858 18.0479C13.4018 17.8838 13.635 17.8151 13.8162 17.9092C14.024 18.0014 14.1217 18.2725 14.017 18.4752C13.8596 18.7822 13.5537 18.9916 13.2268 19.0838C12.6697 19.2494 12.0752 19.1588 11.5236 19.0154C11.5319 19.1963 11.5162 19.385 11.4248 19.5451C11.2783 19.8264 10.9678 20.0022 10.6526 20.0002H10.6041C10.2557 19.9666 9.93537 19.7193 9.84357 19.3772C9.7549 19.1022 9.84123 18.8053 10.0057 18.5776C8.56037 18.1776 7.11623 17.7736 5.6713 17.3713C5.68771 17.5682 5.66427 17.7744 5.55841 17.9455C5.38146 18.2572 4.99318 18.4295 4.64318 18.3498C4.31974 18.2858 4.04826 18.0209 3.98068 17.6979C3.91544 17.4361 4.00099 17.1611 4.16115 16.9514C3.6799 16.817 3.19865 16.683 2.71701 16.5494C2.57052 16.5115 2.42091 16.4318 2.35919 16.2854Z" fill="#2EA9E7"/>
</g>
<defs>
<clipPath id="clip0_1666_9601">
<rect width="20" height="20" fill="white"/>
</clipPath>
</defs>
</svg>
