<svg width="64" height="64" viewBox="0 0 64 64" fill="none" xmlns="http://www.w3.org/2000/svg">
<g clip-path="url(#clip0_2986_11061)">
<path d="M63.6397 20.8402L53.6398 6.8403C53.2398 6.3203 52.6398 6.00031 51.9998 6.00031H12.0002C11.3602 6.00031 10.7602 6.3203 10.3602 6.8403L0.360327 20.8402C0.240328 21.2002 0.120329 21.5602 0.000330133 21.9202C-0.0396695 26.3601 3.5603 30.0001 8.00025 30.0001C10.4002 30.0001 12.5202 28.9601 14.0002 27.2801C15.4802 28.9601 17.6002 30.0001 20.0001 30.0001C22.4001 30.0001 24.5201 28.9601 26.0001 27.2801C27.4801 28.9601 29.6 30.0001 32 30.0001C34.4 30.0001 36.52 28.9601 38 27.2801C39.4799 28.9601 41.5999 30.0001 43.9999 30.0001C46.3999 30.0001 48.5199 28.9601 49.9998 27.2801C51.4798 28.9601 53.5998 30.0001 55.9998 30.0001C60.4397 30.0001 64.0397 26.3601 63.9997 21.9202C63.8797 21.5602 63.7597 21.2002 63.6397 20.8402Z" fill="url(#paint0_linear_2986_11061)"/>
<path d="M55.9997 34C53.8758 34 51.8078 33.4321 49.9998 32.3841C46.3838 34.476 41.6159 34.476 37.9999 32.3841C34.3839 34.476 29.612 34.476 26 32.3841C22.3881 34.476 17.6121 34.476 14.0001 32.3841C10.9962 34.128 7.27621 34.352 4.00024 33.2201V53.9998C4.00024 56.2078 5.79223 57.9998 8.00021 57.9998H39.9999V38H51.9998V57.9998H55.9997C58.2077 57.9998 59.9997 56.2078 59.9997 53.9998V33.2681C58.7277 33.72 57.3877 34 55.9997 34ZM28 49.9999H12.0002V38H28V49.9999Z" fill="url(#paint1_linear_2986_11061)"/>
</g>
<defs>
<linearGradient id="paint0_linear_2986_11061" x1="64" y1="6.00031" x2="60.8395" y2="39.0872" gradientUnits="userSpaceOnUse">
<stop stop-color="#6481FF"/>
<stop offset="1" stop-color="#1433B6"/>
</linearGradient>
<linearGradient id="paint1_linear_2986_11061" x1="59.9997" y1="32.3841" x2="55.9029" y2="67.5437" gradientUnits="userSpaceOnUse">
<stop stop-color="#6481FF"/>
<stop offset="1" stop-color="#1433B6"/>
</linearGradient>
<clipPath id="clip0_2986_11061">
<rect width="64" height="64" fill="white"/>
</clipPath>
</defs>
</svg>
