<svg width="20" height="20" viewBox="0 0 20 20" fill="none" xmlns="http://www.w3.org/2000/svg">
<path d="M9.90366 1.875H10.089C10.7028 1.89087 11.3179 2.01814 11.8724 2.28665C12.71 2.67988 13.3873 3.39209 13.7453 4.24458C11.2484 4.24458 8.75125 4.24458 6.25439 4.24458C6.49624 3.67837 6.87043 3.1677 7.34937 2.77922C8.06221 2.19143 8.98547 1.89404 9.90366 1.875Z" fill="#2341BD"/>
<path d="M5.66371 5.29182C5.78432 5.26992 5.90746 5.26199 6.02966 5.25977C8.69726 5.26135 11.3649 5.25881 14.0325 5.26135C14.4311 5.25881 14.8304 5.43083 15.0865 5.73901C15.302 5.98403 15.4143 6.30872 15.4147 6.63372C15.4185 7.2688 15.4147 7.9042 15.4166 8.53928C15.4128 8.69861 15.4083 8.86143 15.3607 9.01504C15.2585 9.37971 14.9929 9.69392 14.6523 9.85896C14.4121 9.9821 14.1372 10.0056 13.8716 10.0005C11.3217 9.99956 8.77184 10.0005 6.22199 10.0002C5.99189 10.0008 5.75512 10.0072 5.53422 9.93291C5.11591 9.80564 4.77282 9.45969 4.64714 9.04138C4.58652 8.86016 4.5843 8.66624 4.58303 8.47739C4.58747 7.83882 4.57604 7.19993 4.58874 6.56167C4.60207 5.95769 5.07306 5.4083 5.66371 5.29182ZM5.93762 6.61499C5.93698 7.06631 5.9373 7.51763 5.9373 7.96895C6.38862 7.96863 6.83994 7.96926 7.29125 7.96863C7.29094 7.51763 7.29125 7.06631 7.29094 6.61531C6.83994 6.61499 6.38862 6.61531 5.93762 6.61499Z" fill="#2EA9E7"/>
<path d="M6.79004 11.0156C8.93015 11.0156 11.0699 11.0156 13.2101 11.0156C12.8997 11.9033 12.2094 12.6409 11.3626 13.0418C10.7938 13.3119 10.1448 13.423 9.52112 13.3186C8.2865 13.1151 7.20327 12.1947 6.79004 11.0156Z" fill="#2341BD"/>
<path d="M3.40288 14.2301C4.45342 13.8806 5.50332 13.529 6.55417 13.1802C7.36382 14.027 8.47275 14.6036 9.64802 14.6938C10.4742 14.7623 11.3159 14.5865 12.0535 14.211C12.5756 13.9552 13.0412 13.5956 13.4458 13.1802C14.5519 13.5471 15.6577 13.9168 16.7634 14.2847C17.5242 14.5271 18.0863 15.2765 18.125 16.0712V18.125H1.875V16.0779C1.8988 15.4669 2.24062 14.8915 2.73162 14.5367C2.93125 14.3885 3.16833 14.3053 3.40288 14.2301Z" fill="#2341BD"/>
</svg>
