<svg width="24" height="24" viewBox="0 0 24 24" fill="none" xmlns="http://www.w3.org/2000/svg">
<path d="M3.72844 0H20.2687C20.5617 0.009375 20.8402 0.198281 20.9461 0.472969C21.0361 0.688594 20.9831 0.925313 20.9644 1.14891C20.235 8.43984 19.5056 15.7313 18.7772 23.0222C18.7519 23.2331 18.757 23.4619 18.6361 23.6466C18.5081 23.8575 18.2709 23.9873 18.0262 24H5.93578C5.70703 23.9714 5.48953 23.8472 5.36765 23.6489C5.25281 23.4769 5.24859 23.2641 5.2275 23.0653C4.48828 15.6591 3.74531 8.25281 3.00703 0.846563C2.94516 0.421875 3.30047 0.00796875 3.72844 0ZM4.58203 1.50047C4.72734 2.95547 4.87172 4.41094 5.01844 5.86594C5.73844 5.66953 6.46969 5.49797 7.2164 5.44547C8.93015 5.25797 10.74 5.63766 12.1416 6.66891C12.4805 6.91922 12.8062 7.19016 13.1728 7.40016C14.2828 8.04 15.6164 8.21578 16.8741 8.04281C17.5341 7.97813 18.1777 7.8075 18.8109 7.61625C19.0148 5.57766 19.2183 3.53906 19.4217 1.50047C14.475 1.5 9.52828 1.49953 4.58203 1.50047Z" fill="#4D5DEE"/>
</svg>
