<svg width="32" height="32" viewBox="0 0 32 32" fill="none" xmlns="http://www.w3.org/2000/svg">
    <defs>
        <linearGradient id="paint0_linear_2187_9165" x1="15.1212" y1="16.8789" x2="12.5733" y2="26.8813"
            gradientUnits="userSpaceOnUse">
            <stop stop-color="#6481FF" />
            <stop offset="1" stop-color="#1433B6" />
        </linearGradient>
        <linearGradient id="paint1_linear_2187_9165" x1="31" y1="8.06058" x2="25.0111" y2="38.8077"
            gradientUnits="userSpaceOnUse">
            <stop stop-color="#6481FF" />
            <stop offset="1" stop-color="#1433B6" />
        </linearGradient>
        <linearGradient id="paint2_linear_2187_9165" x1="16.8789" y1="1.00006" x2="14.3639" y2="5.22135"
            gradientUnits="userSpaceOnUse">
            <stop stop-color="#6481FF" />
            <stop offset="1" stop-color="#1433B6" />
        </linearGradient>
        <linearGradient id="paint3_linear_2187_9165" x1="12.8027" y1="4.53013" x2="12.0286" y2="8.46077"
            gradientUnits="userSpaceOnUse">
            <stop stop-color="#6481FF" />
            <stop offset="1" stop-color="#1433B6" />
        </linearGradient>
        <linearGradient id="paint4_linear_2187_9165" x1="22.9939" y1="4.53008" x2="22.2199" y2="8.46073"
            gradientUnits="userSpaceOnUse">
            <stop stop-color="#6481FF" />
            <stop offset="1" stop-color="#1433B6" />
        </linearGradient>
    </defs>
    <path
        d="M11.2931 16.8789C9.18229 16.8789 7.46503 18.5962 7.46503 20.707C7.46503 22.8178 9.18229 24.5351 11.2931 24.5351C13.4039 24.5351 15.1212 22.8178 15.1212 20.707C15.1212 18.5962 13.4039 16.8789 11.2931 16.8789Z"
        fill="url(#paint0_linear_2187_9165)" />
    <path
        d="M30.121 10.414H16.8789V13.1758C16.8789 13.6612 16.4853 14.0547 16 14.0547C15.5146 14.0547 15.1211 13.6612 15.1211 13.1758V10.414H11.293C9.93938 10.414 8.64628 10.6772 7.46134 11.1542C7.38834 9.43606 5.96832 8.06058 4.23243 8.06058C2.45013 8.06058 1.00006 9.51059 1.00006 11.2929C1.00006 12.714 1.92215 13.9229 3.19913 14.355C1.82225 16.1056 1.00006 18.3121 1.00006 20.707C1.00006 26.3826 5.61747 30.9999 11.293 30.9999C16.9686 30.9999 21.586 26.3825 21.586 20.707C21.586 20.5741 21.5834 20.4407 21.5782 20.3071L30.2301 19.2256C30.6699 19.1706 31 18.7967 31 18.3535V11.2929C30.9999 10.8076 30.6064 10.414 30.121 10.414V10.414ZM4.23249 12.7676C3.41939 12.7676 2.75787 12.1061 2.75787 11.2929C2.75787 10.4798 3.41939 9.81838 4.23249 9.81838C5.04559 9.81838 5.70717 10.4798 5.70717 11.2929C5.70717 12.1061 5.04559 12.7676 4.23249 12.7676V12.7676ZM11.293 26.2929C8.21298 26.2929 5.70717 23.787 5.70717 20.707C5.70717 17.627 8.21292 15.1211 11.293 15.1211C14.3731 15.1211 16.8789 17.627 16.8789 20.707C16.8789 23.787 14.3731 26.2929 11.293 26.2929V26.2929Z"
        fill="url(#paint1_linear_2187_9165)" />
    <path
        d="M16 5.11133C16.4853 5.11133 16.8789 4.71782 16.8789 4.23243V1.87896C16.8789 1.39357 16.4853 1.00006 16 1.00006C15.5146 1.00006 15.1211 1.39357 15.1211 1.87896V4.23243C15.1212 4.71782 15.5146 5.11133 16 5.11133Z"
        fill="url(#paint2_linear_2187_9165)" />
    <path
        d="M9.446 6.17035L11.4842 7.34708C11.6225 7.42701 11.7736 7.46503 11.9228 7.46503C12.2265 7.46503 12.522 7.30742 12.6848 7.02541C12.9275 6.60506 12.7834 6.06752 12.3631 5.82483L10.3249 4.64809C9.90456 4.40534 9.36702 4.54924 9.12433 4.96977C8.88163 5.39012 9.02565 5.92766 9.446 6.17035Z"
        fill="url(#paint3_linear_2187_9165)" />
    <path
        d="M20.0774 7.46497C20.2264 7.46497 20.3775 7.42695 20.5159 7.34703L22.5543 6.17029C22.9747 5.9276 23.1187 5.39012 22.876 4.96977C22.6333 4.5493 22.0958 4.40522 21.6754 4.64803L19.6371 5.82477C19.2167 6.06746 19.0727 6.60494 19.3154 7.02529C19.4782 7.3073 19.7736 7.46497 20.0774 7.46497Z"
        fill="url(#paint4_linear_2187_9165)" />
</svg>